<svg width="44.32706165313721" height="47.011383056640625" xmlns="http://www.w3.org/2000/svg">
  <g><rect fill="none" id="canvas_background" height="52" width="52" y="-1" x="-1"/></g>
  <g><g id="logo-sheldonled">
    <g id="svg_1" transform="matrix(1,0,-0.02,1,-21.1,-42.4) ">
      <path id="svg_2" fill="#000" d="m26.6162,68.69543c2.1,3.2 11.4,6.8 13.5,9.8c-0.7,0.3 -0.4,1.7 0.4,1.6c1.8,-0.2 3.6,-0.2 5.4,-0.1c-1.7,0.2 -3.4,0.6 -4.9,1.4c-0.8,0.5 -0.6,1.6 0.2,1.9c1.4,0.2 2.9,0.5 4.3,0.8c-1.4,0.2 -2.9,0.5 -4.2,1c-1,0.3 -2,1.7 0,1.9c3,0.9 6.1,1.5 9.3,1.8c1.5,0.2 1.5,-2.3 0,-2.4c-1.2,-0.1 -2.3,-0.2 -3.4,-0.4c1.8,-0.1 3.6,-0.2 5.4,-0.5c1.2,-0.2 1.1,-2 0,-2.3c-2,-0.5 -4,-0.9 -6.1,-1.3l0.5,-0.1c1.8,-0.3 3.5,-0.7 5.2,-0.8c1.2,-0.1 1.6,-1.9 0.3,-2.2l-1.5,-1.2c1.4,-1.8 12.1,-10.1 12.4,-19.7c-1.3,-30.1 -47.5,-8.2 -36.8,10.8zm23.2,9.4c-2.4,0.1 -6.3,-0.1 -8.7,0.1c-1,-2.6 -9.5,-6.1 -14.2,-12.1c-5.7,-9 26.3,-36.4 34.2,-9c1.5,8.1 -11.1,19.1 -11.3,20.9l0,0.1z"/>
    </g>
    <path id="svg_3" fill="#000" d="m17.12829,29.89543c-2.5,-3 -8.2,-4.9 -9.6,-5.9c1.5,-1.3 5.2,-5.2 8.6,-9.5c0.5,-0.5 1.3,-0.5 2,0.1c-4,4.2 -8.7,8.6 -8.7,8.6c2.8,2.2 5.5,2.8 8.9,5.8l-1.2,0.9z"/>
    <path id="svg_4" fill="#000" d="m26.52829,12.69543c-2.8,5.5 -5.3,12 -6.4,17.7l-1.2,0.7c0.1,-5.9 5.6,-16.4 6.3,-17.6l1.3,-0.8z"/>
    <path id="svg_5" fill="#000" d="m27.92829,13.19543c1.9,2.9 4.8,4.3 7.7,5.7c1.4,0.3 -0.6,1.9 -9.5,11.9l-1.4,0.3l0,0c3.1,-3.8 7.4,-7.4 9.7,-11.3c-2.9,-1.4 -5.8,-3.4 -7.6,-5.6c0.4,0 0.8,-0.8 1.1,-1z"/>
  </g></g>
</svg>